o Plane
v -25.150347 0.000000 25.150347
v 25.150347 0.000000 25.150347
v -25.150347 0.000000 -25.150347
v 25.150347 0.000000 -25.150347
vn -0.0000 1.0000 -0.0000
vt 0.000000 0.000000
vt 1.000000 0.000000
vt 1.000000 1.000000
vt 0.000000 1.000000
s 0
f 1/1/1 2/2/1 4/3/1 3/4/1
o Cube
v -7.908057 -5.125451 15.900829
v -7.908057 18.467213 15.900829
v -7.908057 -5.125451 -7.691833
v -7.908057 18.467213 -7.691833
v -5.908057 -5.125451 15.900829
v -5.908057 18.467213 15.900829
v -5.908057 -5.125451 -7.691833
v -5.908057 18.467213 -7.691833
vn -1.0000 -0.0000 -0.0000
vn -0.0000 -0.0000 -1.0000
vn 1.0000 -0.0000 -0.0000
vn -0.0000 -0.0000 1.0000
vn -0.0000 -1.0000 -0.0000
vn -0.0000 1.0000 -0.0000
vt 0.375000 0.000000
vt 0.625000 0.000000
vt 0.625000 0.250000
vt 0.375000 0.250000
vt 0.625000 0.500000
vt 0.375000 0.500000
vt 0.625000 0.750000
vt 0.375000 0.750000
vt 0.625000 1.000000
vt 0.375000 1.000000
vt 0.125000 0.500000
vt 0.125000 0.750000
vt 0.875000 0.500000
vt 0.875000 0.750000
s 0
f 5/5/2 6/6/2 8/7/2 7/8/2
f 7/8/3 8/7/3 12/9/3 11/10/3
f 11/10/4 12/9/4 10/11/4 9/12/4
f 9/12/5 10/11/5 6/13/5 5/14/5
f 7/15/6 11/10/6 9/12/6 5/16/6
f 12/9/7 8/17/7 6/18/7 10/11/7
o Cube.001
v -7.908057 -5.125451 15.900829
v -7.908057 18.467213 15.900829
v -7.908057 -5.125451 -7.691833
v -7.908057 18.467213 -7.691833
v -5.908057 -5.125451 15.900829
v -5.908057 18.467213 15.900829
v -5.908057 -5.125451 -7.691833
v -5.908057 18.467213 -7.691833
vn -1.0000 -0.0000 -0.0000
vn -0.0000 -0.0000 -1.0000
vn 1.0000 -0.0000 -0.0000
vn -0.0000 -0.0000 1.0000
vn -0.0000 -1.0000 -0.0000
vn -0.0000 1.0000 -0.0000
vt 0.375000 0.000000
vt 0.625000 0.000000
vt 0.625000 0.250000
vt 0.375000 0.250000
vt 0.625000 0.500000
vt 0.375000 0.500000
vt 0.625000 0.750000
vt 0.375000 0.750000
vt 0.625000 1.000000
vt 0.375000 1.000000
vt 0.125000 0.500000
vt 0.125000 0.750000
vt 0.875000 0.500000
vt 0.875000 0.750000
s 0
f 13/19/8 14/20/8 16/21/8 15/22/8
f 15/22/9 16/21/9 20/23/9 19/24/9
f 19/24/10 20/23/10 18/25/10 17/26/10
f 17/26/11 18/25/11 14/27/11 13/28/11
f 15/29/12 19/24/12 17/26/12 13/30/12
f 20/23/13 16/31/13 14/32/13 18/25/13
o Cube.002
v -8.268250 -5.007738 -7.418012
v -8.268250 18.584925 -7.418012
v 15.292084 -5.007738 -8.652684
v 15.292084 18.584925 -8.652684
v -8.163584 -5.007738 -5.420753
v -8.163584 18.584925 -5.420753
v 15.396749 -5.007738 -6.655425
v 15.396749 18.584925 -6.655425
vn -0.0523 -0.0000 -0.9986
vn 0.9986 -0.0000 -0.0523
vn 0.0523 -0.0000 0.9986
vn -0.9986 -0.0000 0.0523
vn -0.0000 -1.0000 -0.0000
vn -0.0000 1.0000 -0.0000
vt 0.375000 0.000000
vt 0.625000 0.000000
vt 0.625000 0.250000
vt 0.375000 0.250000
vt 0.625000 0.500000
vt 0.375000 0.500000
vt 0.625000 0.750000
vt 0.375000 0.750000
vt 0.625000 1.000000
vt 0.375000 1.000000
vt 0.125000 0.500000
vt 0.125000 0.750000
vt 0.875000 0.500000
vt 0.875000 0.750000
s 0
f 21/33/14 22/34/14 24/35/14 23/36/14
f 23/36/15 24/35/15 28/37/15 27/38/15
f 27/38/16 28/37/16 26/39/16 25/40/16
f 25/40/17 26/39/17 22/41/17 21/42/17
f 23/43/18 27/38/18 25/40/18 21/44/18
f 28/37/19 24/45/19 22/46/19 26/39/19
o Cube.003
v -7.843911 -4.733049 -8.579660
v -7.843911 18.859613 -8.579660
v 15.748752 -4.733049 -8.579659
v 15.748752 18.859613 -8.579659
v -7.843911 -4.733049 -6.579661
v -7.843911 18.859613 -6.579661
v 15.748752 -4.733049 -6.579660
v 15.748752 18.859613 -6.579660
vn -0.0000 -0.0000 -1.0000
vn 1.0000 -0.0000 -0.0000
vn -0.0000 -0.0000 1.0000
vn -1.0000 -0.0000 -0.0000
vn -0.0000 -1.0000 -0.0000
vn -0.0000 1.0000 -0.0000
vt 0.375000 0.000000
vt 0.625000 0.000000
vt 0.625000 0.250000
vt 0.375000 0.250000
vt 0.625000 0.500000
vt 0.375000 0.500000
vt 0.625000 0.750000
vt 0.375000 0.750000
vt 0.625000 1.000000
vt 0.375000 1.000000
vt 0.125000 0.500000
vt 0.125000 0.750000
vt 0.875000 0.500000
vt 0.875000 0.750000
s 0
f 29/47/20 30/48/20 32/49/20 31/50/20
f 31/50/21 32/49/21 36/51/21 35/52/21
f 35/52/22 36/51/22 34/53/22 33/54/22
f 33/54/23 34/53/23 30/55/23 29/56/23
f 31/57/24 35/52/24 33/54/24 29/58/24
f 36/51/25 32/59/25 30/60/25 34/53/25
o Cube.004
v 2.625807 4.941774 -13.645137
v 2.625807 -4.283105 -13.645137
v 12.051420 4.941774 -14.139083
v 12.051420 -4.283105 -14.139083
v 3.224256 4.941774 -2.225379
v 3.224256 -4.283105 -2.225379
v 12.649869 4.941774 -2.719325
v 12.649869 -4.283105 -2.719325
vn -0.0523 -0.0000 -0.9986
vn 0.9986 -0.0000 -0.0523
vn 0.0523 -0.0000 0.9986
vn -0.9986 -0.0000 0.0523
vn -0.0000 1.0000 -0.0000
vn -0.0000 -1.0000 -0.0000
vt 0.375000 0.000000
vt 0.625000 0.000000
vt 0.625000 0.250000
vt 0.375000 0.250000
vt 0.625000 0.500000
vt 0.375000 0.500000
vt 0.625000 0.750000
vt 0.375000 0.750000
vt 0.625000 1.000000
vt 0.375000 1.000000
vt 0.125000 0.500000
vt 0.125000 0.750000
vt 0.875000 0.500000
vt 0.875000 0.750000
s 0
f 37/61/26 39/64/26 40/63/26 38/62/26
f 39/64/27 43/66/27 44/65/27 40/63/27
f 43/66/28 41/68/28 42/67/28 44/65/28
f 41/68/29 37/70/29 38/69/29 42/67/29
f 39/71/30 37/72/30 41/68/30 43/66/30
f 44/65/31 42/67/31 38/74/31 40/73/31
o Cube.005
v -2.772128 8.141105 -8.102694
v -2.772128 -1.083775 -8.102694
v 1.690410 8.141105 -8.336552
v 1.690410 -1.083775 -8.336552
v -2.174316 8.141105 3.304891
v -2.174316 -1.083775 3.304891
v 2.288221 8.141105 3.071033
v 2.288221 -1.083775 3.071033
vn -0.0523 -0.0000 -0.9986
vn 0.9986 -0.0000 -0.0523
vn 0.0523 -0.0000 0.9986
vn -0.9986 -0.0000 0.0523
vn -0.0000 1.0000 -0.0000
vn -0.0000 -1.0000 -0.0000
vt 0.375000 0.000000
vt 0.625000 0.000000
vt 0.625000 0.250000
vt 0.375000 0.250000
vt 0.625000 0.500000
vt 0.375000 0.500000
vt 0.625000 0.750000
vt 0.375000 0.750000
vt 0.625000 1.000000
vt 0.375000 1.000000
vt 0.125000 0.500000
vt 0.125000 0.750000
vt 0.875000 0.500000
vt 0.875000 0.750000
s 0
f 45/75/32 47/78/32 48/77/32 46/76/32
f 47/78/33 51/80/33 52/79/33 48/77/33
f 51/80/34 49/82/34 50/81/34 52/79/34
f 49/82/35 45/84/35 46/83/35 50/81/35
f 47/85/36 45/86/36 49/82/36 51/80/36
f 52/79/37 50/81/37 46/88/37 48/87/37
o Cube.006
v 0.118597 1.579423 -9.239061
v 0.118597 0.970165 -9.239061
v 5.685098 1.579423 -9.530772
v 5.685098 0.970165 -9.530772
v 0.716510 1.579423 2.170481
v 0.716510 0.970165 2.170481
v 6.283012 1.579423 1.878770
v 6.283012 0.970165 1.878770
vn -0.0523 -0.0000 -0.9986
vn 0.9986 -0.0000 -0.0523
vn 0.0523 -0.0000 0.9986
vn -0.9986 -0.0000 0.0523
vn -0.0000 1.0000 -0.0000
vn -0.0000 -1.0000 -0.0000
vt 0.375000 0.000000
vt 0.625000 0.000000
vt 0.625000 0.250000
vt 0.375000 0.250000
vt 0.625000 0.500000
vt 0.375000 0.500000
vt 0.625000 0.750000
vt 0.375000 0.750000
vt 0.625000 1.000000
vt 0.375000 1.000000
vt 0.125000 0.500000
vt 0.125000 0.750000
vt 0.875000 0.500000
vt 0.875000 0.750000
s 0
f 53/89/38 55/92/38 56/91/38 54/90/38
f 55/92/39 59/94/39 60/93/39 56/91/39
f 59/94/40 57/96/40 58/95/40 60/93/40
f 57/96/41 53/98/41 54/97/41 58/95/41
f 55/99/42 53/100/42 57/96/42 59/94/42
f 60/93/43 58/95/43 54/102/43 56/101/43
o Cube.007
v 0.118597 2.646133 -9.239061
v 0.118597 2.036875 -9.239061
v 5.685098 2.646133 -9.530772
v 5.685098 2.036875 -9.530772
v 0.716510 2.646133 2.170481
v 0.716510 2.036875 2.170481
v 6.283012 2.646133 1.878770
v 6.283012 2.036875 1.878770
vn -0.0523 -0.0000 -0.9986
vn 0.9986 -0.0000 -0.0523
vn 0.0523 -0.0000 0.9986
vn -0.9986 -0.0000 0.0523
vn -0.0000 1.0000 -0.0000
vn -0.0000 -1.0000 -0.0000
vt 0.375000 0.000000
vt 0.625000 0.000000
vt 0.625000 0.250000
vt 0.375000 0.250000
vt 0.625000 0.500000
vt 0.375000 0.500000
vt 0.625000 0.750000
vt 0.375000 0.750000
vt 0.625000 1.000000
vt 0.375000 1.000000
vt 0.125000 0.500000
vt 0.125000 0.750000
vt 0.875000 0.500000
vt 0.875000 0.750000
s 0
f 61/103/44 63/106/44 64/105/44 62/104/44
f 63/106/45 67/108/45 68/107/45 64/105/45
f 67/108/46 65/110/46 66/109/46 68/107/46
f 65/110/47 61/112/47 62/111/47 66/109/47
f 63/113/48 61/114/48 65/110/48 67/108/48
f 68/107/49 66/109/49 62/116/49 64/115/49
o Cube.008
v 0.118597 3.767693 -9.239061
v 0.118597 3.158435 -9.239061
v 5.685098 3.767693 -9.530772
v 5.685098 3.158435 -9.530772
v 0.716510 3.767693 2.170481
v 0.716510 3.158435 2.170481
v 6.283012 3.767693 1.878770
v 6.283012 3.158435 1.878770
vn -0.0523 -0.0000 -0.9986
vn 0.9986 -0.0000 -0.0523
vn 0.0523 -0.0000 0.9986
vn -0.9986 -0.0000 0.0523
vn -0.0000 1.0000 -0.0000
vn -0.0000 -1.0000 -0.0000
vt 0.375000 0.000000
vt 0.625000 0.000000
vt 0.625000 0.250000
vt 0.375000 0.250000
vt 0.625000 0.500000
vt 0.375000 0.500000
vt 0.625000 0.750000
vt 0.375000 0.750000
vt 0.625000 1.000000
vt 0.375000 1.000000
vt 0.125000 0.500000
vt 0.125000 0.750000
vt 0.875000 0.500000
vt 0.875000 0.750000
s 0
f 69/117/50 71/120/50 72/119/50 70/118/50
f 71/120/51 75/122/51 76/121/51 72/119/51
f 75/122/52 73/124/52 74/123/52 76/121/52
f 73/124/53 69/126/53 70/125/53 74/123/53
f 71/127/54 69/128/54 73/124/54 75/122/54
f 76/121/55 74/123/55 70/130/55 72/129/55
o sdsf
v 9.244219 5.988971 -4.924778
v 9.458086 6.417193 -4.924778
v 9.386797 6.417193 -4.924778
v 9.244219 6.702838 -4.924778
v 9.386797 6.988971 -4.924778
v 9.958086 6.988971 -4.924778
v 9.958086 6.845904 -4.924778
v 9.458086 6.845904 -4.924778
v 9.386797 6.702838 -4.924778
v 9.458086 6.560260 -4.924778
v 9.672441 6.560260 -4.924778
v 9.958086 5.988971 -4.924778
v 9.815508 5.988971 -4.924778
v 9.601152 6.417193 -4.924778
v 9.386797 5.988971 -4.924778
v 8.958574 6.560260 -4.924778
v 8.958574 6.845904 -4.924778
v 8.601152 6.845904 -4.924778
v 8.529863 6.702838 -4.924778
v 8.601152 6.560260 -4.924778
v 8.387285 5.988971 -4.924778
v 8.387285 6.131549 -4.924778
v 8.958574 6.131549 -4.924778
v 8.958574 6.417193 -4.924778
v 8.529863 6.417193 -4.924778
v 8.387285 6.702838 -4.924778
v 8.529863 6.988971 -4.924778
v 9.101152 6.988971 -4.924778
v 9.101152 5.988971 -4.924778
v 8.101641 6.560260 -4.924778
v 8.101641 6.845904 -4.924778
v 7.744219 6.845904 -4.924778
v 7.672930 6.702838 -4.924778
v 7.744219 6.560260 -4.924778
v 7.530352 5.988971 -4.924778
v 7.530352 6.131549 -4.924778
v 8.101641 6.131549 -4.924778
v 8.101641 6.417193 -4.924778
v 7.672930 6.417193 -4.924778
v 7.530352 6.702838 -4.924778
v 7.672930 6.988971 -4.924778
v 8.244219 6.988971 -4.924778
v 8.244219 5.988971 -4.924778
v 6.530352 5.988971 -4.924778
v 6.316485 6.417193 -4.924778
v 6.316485 6.702838 -4.924778
v 6.459063 6.702838 -4.924778
v 6.459063 6.417193 -4.924778
v 6.602129 6.131549 -4.924778
v 6.602129 6.988971 -4.924778
v 6.744708 6.988971 -4.924778
v 6.744708 6.131549 -4.924778
v 6.887774 6.131549 -4.924778
v 6.887774 6.702838 -4.924778
v 7.030352 6.702838 -4.924778
v 7.030352 5.988971 -4.924778
v 6.030840 6.560260 -4.924778
v 6.030840 6.845904 -4.924778
v 5.673419 6.845904 -4.924778
v 5.602129 6.702838 -4.924778
v 5.673419 6.560260 -4.924778
v 5.459551 5.988971 -4.924778
v 5.459551 6.131549 -4.924778
v 6.030840 6.131549 -4.924778
v 6.030840 6.417193 -4.924778
v 5.602129 6.417193 -4.924778
v 5.459551 6.702838 -4.924778
v 5.602129 6.988971 -4.924778
v 6.173419 6.988971 -4.924778
v 6.173419 5.988971 -4.924778
v 5.030840 6.131549 -4.924778
v 5.030840 6.845904 -4.924778
v 4.888262 6.845904 -4.924778
v 4.888262 6.131549 -4.924778
v 4.602618 5.988971 -4.924778
v 4.602618 6.131549 -4.924778
v 4.745196 6.131549 -4.924778
v 4.745196 6.845904 -4.924778
v 4.602618 6.845904 -4.924778
v 4.602618 6.988971 -4.924778
v 5.316485 6.988971 -4.924778
v 5.316485 6.845904 -4.924778
v 5.173907 6.845904 -4.924778
v 5.173907 6.131549 -4.924778
v 5.316485 6.131549 -4.924778
v 5.316485 5.988971 -4.924778
v 4.316973 6.274615 -4.924778
v 4.316973 6.702838 -4.924778
v 3.959551 6.702838 -4.924778
v 3.888262 6.560260 -4.924778
v 3.888262 6.417193 -4.924778
v 3.959551 6.274615 -4.924778
v 4.316973 5.988971 -4.924778
v 4.316973 6.131549 -4.924778
v 3.888262 6.131549 -4.924778
v 3.745684 6.417193 -4.924778
v 3.745684 6.560260 -4.924778
v 3.888262 6.845904 -4.924778
v 4.316973 6.845904 -4.924778
v 4.316973 6.988971 -4.924778
v 4.459551 6.988971 -4.924778
v 4.459551 5.988971 -4.924778
vn -0.0000 -0.0000 1.0000
vt 0.214286 0.000000
vt 0.500000 0.000000
vt 0.285714 0.000000
vt 0.357143 0.000000
vt 0.428571 0.000000
vt 0.571429 0.000000
vt 0.142857 0.000000
vt 0.642857 0.000000
vt 0.714286 0.000000
vt 0.071429 0.000000
vt 0.928571 0.000000
vt 0.785714 0.000000
vt 0.000000 0.000000
vt 1.000000 0.000000
vt 0.857143 0.000000
vt 0.769231 0.000000
vt 0.153846 0.000000
vt 0.846154 0.000000
vt 0.923077 0.000000
vt 0.076923 0.000000
vt 0.230769 0.000000
vt 0.692308 0.000000
vt 0.307692 0.000000
vt 0.615385 0.000000
vt 0.538462 0.000000
vt 0.384615 0.000000
vt 0.461538 0.000000
vt 0.416667 0.000000
vt 0.583333 0.000000
vt 0.666667 0.000000
vt 0.083333 0.000000
vt 0.250000 0.000000
vt 0.166667 0.000000
vt 0.333333 0.000000
vt 0.750000 0.000000
vt 0.916667 0.000000
vt 0.833333 0.000000
vt 0.533333 0.000000
vt 0.600000 0.000000
vt 0.733333 0.000000
vt 0.466667 0.000000
vt 0.400000 0.000000
vt 0.133333 0.000000
vt 0.200000 0.000000
vt 0.066667 0.000000
vt 0.800000 0.000000
vt 0.866667 0.000000
vt 0.266667 0.000000
vt 0.933333 0.000000
s 0
usemtl Material.004
f 80/131/56 84/132/56 81/133/56
f 84/132/56 82/134/56 81/133/56
f 84/132/56 83/135/56 82/134/56
f 80/131/56 85/136/56 84/132/56
f 79/137/56 85/136/56 80/131/56
f 79/137/56 86/138/56 85/136/56
f 79/137/56 87/139/56 86/138/56
f 79/137/56 78/140/56 87/139/56
f 78/140/56 90/141/56 87/139/56
f 90/141/56 88/142/56 87/139/56
f 77/143/56 90/141/56 78/140/56
f 77/143/56 91/144/56 90/141/56
f 89/145/56 88/142/56 90/141/56
f 102/146/56 94/147/56 103/148/56
f 94/147/56 104/149/56 103/148/56
f 94/147/56 93/150/56 104/149/56
f 93/150/56 105/144/56 104/149/56
f 102/146/56 95/151/56 94/147/56
f 92/143/56 105/144/56 93/150/56
f 101/152/56 95/151/56 102/146/56
f 101/152/56 96/153/56 95/151/56
f 101/152/56 92/143/56 96/153/56
f 101/152/56 100/154/56 92/143/56
f 100/154/56 105/144/56 92/143/56
f 99/155/56 105/144/56 100/154/56
f 97/156/56 99/155/56 98/157/56
f 97/156/56 105/144/56 99/155/56
f 116/146/56 108/147/56 117/148/56
f 108/147/56 118/149/56 117/148/56
f 108/147/56 107/150/56 118/149/56
f 107/150/56 119/144/56 118/149/56
f 116/146/56 109/151/56 108/147/56
f 106/143/56 119/144/56 107/150/56
f 115/152/56 109/151/56 116/146/56
f 115/152/56 110/153/56 109/151/56
f 115/152/56 106/143/56 110/153/56
f 115/152/56 114/154/56 106/143/56
f 114/154/56 119/144/56 106/143/56
f 113/155/56 119/144/56 114/154/56
f 111/156/56 113/155/56 112/157/56
f 111/156/56 119/144/56 113/155/56
f 125/158/56 127/159/56 126/132/56
f 125/158/56 128/160/56 127/159/56
f 121/161/56 123/162/56 122/163/56
f 121/161/56 124/164/56 123/162/56
f 129/165/56 131/166/56 130/167/56
f 129/165/56 132/144/56 131/166/56
f 120/143/56 124/164/56 121/161/56
f 120/143/56 125/158/56 124/164/56
f 120/143/56 128/160/56 125/158/56
f 120/143/56 129/165/56 128/160/56
f 120/143/56 132/144/56 129/165/56
f 143/146/56 135/147/56 144/148/56
f 135/147/56 145/149/56 144/148/56
f 135/147/56 134/150/56 145/149/56
f 134/150/56 146/144/56 145/149/56
f 143/146/56 136/151/56 135/147/56
f 133/143/56 146/144/56 134/150/56
f 142/152/56 136/151/56 143/146/56
f 142/152/56 137/153/56 136/151/56
f 142/152/56 133/143/56 137/153/56
f 142/152/56 141/154/56 133/143/56
f 141/154/56 146/144/56 133/143/56
f 140/155/56 146/144/56 141/154/56
f 138/156/56 140/155/56 139/157/56
f 138/156/56 146/144/56 140/155/56
f 155/168/56 157/160/56 156/169/56
f 155/168/56 158/170/56 157/160/56
f 154/171/56 158/170/56 155/168/56
f 153/172/56 149/173/56 154/171/56
f 149/173/56 158/170/56 154/171/56
f 153/172/56 150/174/56 149/173/56
f 148/175/56 158/170/56 149/173/56
f 147/143/56 159/176/56 148/175/56
f 159/176/56 158/170/56 148/175/56
f 147/143/56 160/177/56 159/176/56
f 151/178/56 153/172/56 152/164/56
f 151/178/56 150/174/56 153/172/56
f 151/178/56 147/143/56 150/174/56
f 151/178/56 160/177/56 147/143/56
f 151/178/56 161/179/56 160/177/56
f 151/178/56 162/144/56 161/179/56
f 175/176/56 177/179/56 176/177/56
f 175/176/56 178/144/56 177/179/56
f 173/160/56 165/173/56 174/170/56
f 165/173/56 175/176/56 174/170/56
f 165/173/56 164/175/56 175/176/56
f 164/175/56 178/144/56 175/176/56
f 173/160/56 166/174/56 165/173/56
f 163/143/56 178/144/56 164/175/56
f 172/169/56 166/174/56 173/160/56
f 172/169/56 167/178/56 166/174/56
f 171/168/56 167/178/56 172/169/56
f 171/168/56 168/164/56 167/178/56
f 171/168/56 163/143/56 168/164/56
f 171/168/56 170/171/56 163/143/56
f 170/171/56 178/144/56 163/143/56
f 169/172/56 178/144/56 170/171/56
